# xmcd CD database file
#
# Track frame offsets:
#	183
#	23838
#	39643
#	59380
#	78010
#	97693
#	113908
#	124625
#	140518
#	160355
#
# Disc length: 2386 seconds
#
# Revision: 0
# Processed by: cddbd v1.4PL0 Copyright (c) Steve Scherf et al.
# Submitted via: CDex 1.50beta10
#
DISCID=7609500a
DTITLE=Eddie Vaan Shaw - Morning Rain
DYEAR=1998
DGENRE=Blues
TTITLE0=Morning Rain
TTITLE1=Torn Down
TTITLE2=It Hurts Me Too
TTITLE3=TV Preacher
TTITLE4=Same Old Blues
TTITLE5=Talk To Me Baby
TTITLE6=Drop Down Baby
TTITLE7=Pickin' The Blues
TTITLE8=I'll Do Anything
TTITLE9=Roller Coaster Blues
EXTD=YEAR: 1998
EXTT0=
EXTT1=
EXTT2=
EXTT3=
EXTT4=
EXTT5=
EXTT6=
EXTT7=
EXTT8=
EXTT9=
PLAYORDER=
